<?xml version="1.0" encoding="utf-8"?>
<!-- Generator: Adobe Illustrator 23.0.1, SVG Export Plug-In . SVG Version: 6.00 Build 0)  -->
<svg version="1.1" id="Layer_1" xmlns="http://www.w3.org/2000/svg" xmlns:xlink="http://www.w3.org/1999/xlink" x="0px" y="0px"
	 viewBox="0 0 48.4 44.2" style="enable-background:new 0 0 48.4 44.2;" xml:space="preserve">
<style type="text/css">
	.st0{fill:#7B895B;}
</style>
<path class="st0" d="M15.1,27c-3.2-3-7.2-3.7-9.8-1.5c-3,2.4-2.8,7.4,0.5,11.5s8.1,5.4,11.1,2.9c2.7-2.2,2.8-6.4,0.3-10.2l17-13.8
	l3.9,4.9l2.1-1.7l-2.2-2.7l2.7-2.2l2.2,2.7l2.1-1.7l-3.9-4.9l2.2-1.8l-2.2-2.7L15.1,27z M14.6,37c-1.4,1.1-4.1,0.1-6-2.3
	c-2-2.4-2.4-5.3-1-6.4c1.4-1.1,4.1-0.1,6,2.3S16,35.9,14.6,37z"/>
</svg>
