<svg xmlns="http://www.w3.org/2000/svg" width="48.399" height="44.151" viewBox="0 0 48.399 44.151"><path d="M13.458,7.366C12.832,3.056,10.187,0,6.8,0,2.919,0,0,3.977,0,9.266s2.919,9.266,6.8,9.266c3.487,0,6.21-3.232,6.7-7.738H35.419v6.249h2.743V13.517h3.526v3.526h2.743V10.794h2.841V7.366ZM6.8,14.889c-1.783,0-3.213-2.527-3.213-5.622,0-3.115,1.45-5.622,3.213-5.622,1.783,0,3.213,2.527,3.213,5.622S8.561,14.889,6.8,14.889Z" transform="matrix(0.777, -0.629, 0.629, 0.777, 0, 29.749)" fill="#fff"/></svg>